<?xml version="1.0" encoding="UTF-8" standalone="no"?>
<!-- Created with Inkscape (http://www.inkscape.org/) -->

<svg
   width="42.02734"
   height="40.875977"
   viewBox="0 0 11.119733 10.815102"
   version="1.1"
   id="svg1"
   inkscape:version="1.3.2 (091e20e, 2023-11-25, custom)"
   sodipodi:docname="logoHostel.svg"
   xml:space="preserve"
   inkscape:export-filename="..\logoHoste1l.png"
   inkscape:export-xdpi="96"
   inkscape:export-ydpi="96"
   xmlns:inkscape="http://www.inkscape.org/namespaces/inkscape"
   xmlns:sodipodi="http://sodipodi.sourceforge.net/DTD/sodipodi-0.dtd"
   xmlns:xlink="http://www.w3.org/1999/xlink"
   xmlns="http://www.w3.org/2000/svg"
   xmlns:svg="http://www.w3.org/2000/svg"><sodipodi:namedview
     id="namedview1"
     pagecolor="#ffffff"
     bordercolor="#000000"
     borderopacity="0.25"
     inkscape:showpageshadow="2"
     inkscape:pageopacity="0.0"
     inkscape:pagecheckerboard="0"
     inkscape:deskcolor="#d1d1d1"
     inkscape:document-units="px"
     showborder="false"
     inkscape:zoom="0.64"
     inkscape:cx="-3925"
     inkscape:cy="264.84375"
     inkscape:window-width="1920"
     inkscape:window-height="1017"
     inkscape:window-x="-8"
     inkscape:window-y="-8"
     inkscape:window-maximized="1"
     inkscape:current-layer="layer1"
     showgrid="false"
     showguides="false"><inkscape:grid
       id="grid113"
       units="px"
       originx="3613.6752"
       originy="-2102.8867"
       spacingx="0.26458333"
       spacingy="0.26458333"
       empcolor="#0099e5"
       empopacity="0.30196078"
       color="#0099e5"
       opacity="0.14901961"
       empspacing="5"
       dotted="false"
       gridanglex="30"
       gridanglez="30"
       visible="false" /></sodipodi:namedview><defs
     id="defs1"><clipPath
       clipPathUnits="userSpaceOnUse"
       id="clipPath811"><g
         id="g815"><path
           id="path815"
           style="opacity:0.315329;fill:#ff2a2a;stroke-width:3.24006;stroke-linecap:round;stroke-linejoin:round;stroke-miterlimit:0;paint-order:fill markers stroke"
           d="m -2097.6005,2471.5292 a 39.798389,39.798389 0 0 1 -39.7984,39.7984 39.798389,39.798389 0 0 1 -39.7984,-39.7984 39.798389,39.798389 0 0 1 39.7984,-39.7984 39.798389,39.798389 0 0 1 39.7984,39.7984 z" /></g></clipPath><clipPath
       clipPathUnits="userSpaceOnUse"
       id="clipPath815"><g
         id="g818"><path
           id="path818"
           style="opacity:0.315329;fill:#ff2a2a;stroke-width:3.24006;stroke-linecap:round;stroke-linejoin:round;stroke-miterlimit:0;paint-order:fill markers stroke"
           d="m -2097.6005,2471.5292 a 39.798389,39.798389 0 0 1 -39.7984,39.7984 39.798389,39.798389 0 0 1 -39.7984,-39.7984 39.798389,39.798389 0 0 1 39.7984,-39.7984 39.798389,39.798389 0 0 1 39.7984,39.7984 z" /></g></clipPath><clipPath
       clipPathUnits="userSpaceOnUse"
       id="clipPath818"><g
         id="g824"><path
           id="path824"
           style="opacity:0.315329;fill:#ff2a2a;stroke-width:3.24006;stroke-linecap:round;stroke-linejoin:round;stroke-miterlimit:0;paint-order:fill markers stroke"
           d="m -2097.6005,2471.5292 a 39.798389,39.798389 0 0 1 -39.7984,39.7984 39.798389,39.798389 0 0 1 -39.7984,-39.7984 39.798389,39.798389 0 0 1 39.7984,-39.7984 39.798389,39.798389 0 0 1 39.7984,39.7984 z" /></g></clipPath><clipPath
       clipPathUnits="userSpaceOnUse"
       id="clipPath824"><g
         id="g832"><path
           id="path832"
           style="opacity:0.315329;fill:#ff2a2a;stroke-width:3.24006;stroke-linecap:round;stroke-linejoin:round;stroke-miterlimit:0;paint-order:fill markers stroke"
           d="m -2097.6005,2471.5292 a 39.798389,39.798389 0 0 1 -39.7984,39.7984 39.798389,39.798389 0 0 1 -39.7984,-39.7984 39.798389,39.798389 0 0 1 39.7984,-39.7984 39.798389,39.798389 0 0 1 39.7984,39.7984 z" /></g></clipPath><clipPath
       clipPathUnits="userSpaceOnUse"
       id="clipPath832"><g
         id="g833"><path
           id="path833"
           style="opacity:0.315329;fill:#ff2a2a;stroke-width:3.24006;stroke-linecap:round;stroke-linejoin:round;stroke-miterlimit:0;paint-order:fill markers stroke"
           d="m -2097.6005,2471.5292 a 39.798389,39.798389 0 0 1 -39.7984,39.7984 39.798389,39.798389 0 0 1 -39.7984,-39.7984 39.798389,39.798389 0 0 1 39.7984,-39.7984 39.798389,39.798389 0 0 1 39.7984,39.7984 z" /></g></clipPath><clipPath
       clipPathUnits="userSpaceOnUse"
       id="clipPath833"><g
         id="g834"><path
           id="path834"
           style="opacity:0.315329;fill:#ff2a2a;stroke-width:3.24006;stroke-linecap:round;stroke-linejoin:round;stroke-miterlimit:0;paint-order:fill markers stroke"
           d="m -2097.6005,2471.5292 a 39.798389,39.798389 0 0 1 -39.7984,39.7984 39.798389,39.798389 0 0 1 -39.7984,-39.7984 39.798389,39.798389 0 0 1 39.7984,-39.7984 39.798389,39.798389 0 0 1 39.7984,39.7984 z" /></g></clipPath><clipPath
       clipPathUnits="userSpaceOnUse"
       id="clipPath834"><g
         id="g835"><path
           id="path835"
           style="opacity:0.315329;fill:#ff2a2a;stroke-width:3.24006;stroke-linecap:round;stroke-linejoin:round;stroke-miterlimit:0;paint-order:fill markers stroke"
           d="m -2097.6005,2471.5292 a 39.798389,39.798389 0 0 1 -39.7984,39.7984 39.798389,39.798389 0 0 1 -39.7984,-39.7984 39.798389,39.798389 0 0 1 39.7984,-39.7984 39.798389,39.798389 0 0 1 39.7984,39.7984 z" /></g></clipPath></defs><g
     inkscape:label="Capa 1"
     inkscape:groupmode="layer"
     id="layer1"
     transform="translate(3613.6753,-2102.8867)"><ellipse
       style="opacity:0.506329;fill:#ffffff;fill-opacity:1;stroke:none;stroke-width:4.89412;stroke-linecap:round;stroke-linejoin:round;stroke-miterlimit:0;stroke-dasharray:none;stroke-opacity:1;paint-order:fill markers stroke"
       id="ellipse272"
       cx="-2616.8384"
       cy="-302.47"
       transform="matrix(-0.82972062,-0.55817891,0.57767832,-0.81626451,0,0)"
       rx="66.744446"
       ry="66.146873" /><text
       xml:space="preserve"
       style="font-style:normal;font-variant:normal;font-weight:normal;font-stretch:normal;font-size:18.6182px;line-height:16.126px;font-family:'Bebas Kai';-inkscape-font-specification:'Bebas Kai';letter-spacing:2.66839px;opacity:1;fill:#000000;fill-opacity:1;stroke:none;stroke-width:6.45871;stroke-linecap:round;stroke-linejoin:round;stroke-miterlimit:0;stroke-dasharray:none;stroke-opacity:0.988235;paint-order:fill markers stroke"
       id="text273"><textPath
         xlink:href="#ellipse272"
         id="textPath277"><tspan
           id="tspan272"
           style="font-style:normal;font-variant:normal;font-weight:normal;font-stretch:normal;font-family:'Bebas Kai';-inkscape-font-specification:'Bebas Kai';letter-spacing:2.66839px;fill:#000000;fill-opacity:1;stroke-width:6.45871">Total Hostel</tspan></textPath></text><g
       id="g1402"
       transform="matrix(0.09427275,0,0,0.09427275,-3406.7189,1875.4042)"><rect
         style="fill:#347486;fill-opacity:1;stroke:#030300;stroke-width:1.92681;stroke-linecap:round;stroke-linejoin:round;stroke-miterlimit:0;stroke-dasharray:none;stroke-opacity:1;paint-order:fill markers stroke"
         id="rect22"
         width="4.7121453"
         height="15.21607"
         x="-2150.5886"
         y="2472.0542"
         ry="2.4478028"
         clip-path="url(#clipPath834)"
         transform="translate(7.7838771,2.3950391)" /><path
         style="fill:#dfa55d;fill-opacity:1;stroke:none;stroke-width:1.92681;stroke-linecap:round;stroke-linejoin:round;stroke-miterlimit:0;stroke-dasharray:none;stroke-opacity:1;paint-order:fill markers stroke"
         d="m -2176.1857,2486.7248 c 3.2624,-1.9393 11.5307,-4.3719 15.0222,-5.8266 16.9248,3.3244 5.3075,2.0711 16.5576,5.3793 l 6.8465,2.2008 h 7.091 l 0.2445,5.6239 v 2.2007 0.489 l 4.0346,-1.5894 4.5236,-1.5894 -0.8558,-1.9561 0.3668,-5.2572 2.5674,-1.4671 6.7243,-4.7681 5.3795,-4.4013 7.0622,-2.1186 5.5459,0.6679 7.1976,5.7832 -15.7712,26.4769 -16.6303,16.7618 -25.882,0.9016 -26.8089,-17.6634 -13.1524,-15.6846 z"
         id="path1373"
         sodipodi:nodetypes="cccccccccccccccccccccccc"
         clip-path="url(#clipPath833)" /><path
         style="fill:none;fill-opacity:1;stroke:#030300;stroke-width:2.08492;stroke-linecap:round;stroke-linejoin:round;stroke-miterlimit:0;stroke-dasharray:none;stroke-opacity:1;paint-order:fill markers stroke"
         d="m -2183.6456,2488.7308 c 0,0 19.9671,-7.6372 24.3181,-6.992 13.0876,1.9407 16.4311,5.9879 24.8828,7.2965 2.0671,0.32 6.5439,-1.0248 6.5439,-1.0248"
         id="path1395"
         sodipodi:nodetypes="cssc"
         clip-path="url(#clipPath832)" /><path
         style="fill:none;fill-opacity:1;stroke:#030300;stroke-width:2.08492;stroke-linecap:round;stroke-linejoin:round;stroke-miterlimit:0;stroke-dasharray:none;stroke-opacity:1;paint-order:fill markers stroke"
         d="m -2123.8029,2487.519 c 6.0573,-2.8051 9.3178,-7.8776 15.5897,-11.0635 0,0 2.9212,-1.9954 7.4628,-2.4558 2.1963,-0.2226 6.6142,0.3393 6.6142,0.3393"
         id="path1396"
         sodipodi:nodetypes="cssc"
         clip-path="url(#clipPath824)" /><path
         d="m -2145.1237,2461.3229 a 8.7407714,8.7448011 0 0 1 -3.1543,-0.3343 8.7407714,8.7448011 0 0 1 -5.8159,-10.9126 8.7407714,8.7448011 0 0 1 1.0957,-2.29 8.7407714,8.7448011 0 0 0 -7.7534,6.153 8.7407714,8.7448011 0 0 0 5.816,10.9127 8.7407714,8.7448011 0 0 0 9.8119,-3.5288 z"
         style="fill:#ebdaa6;fill-opacity:1;stroke:#030300;stroke-width:2.51055;stroke-linecap:round;stroke-linejoin:round;stroke-miterlimit:0;stroke-dasharray:none;paint-order:fill markers stroke"
         id="path1397"
         clip-path="url(#clipPath818)"
         transform="matrix(0.76497242,-0.04332801,0.04344473,0.76703313,-612.24441,477.46983)" /><path
         style="fill:none;fill-opacity:1;stroke:#030300;stroke-width:1.92681;stroke-linecap:round;stroke-linejoin:round;stroke-miterlimit:0;stroke-dasharray:none;stroke-opacity:1;paint-order:fill markers stroke"
         d="m -2140.1939,2500.0653 c 8.1221,0 10.157,-3.8997 17.0929,-6.1335 2.3831,-0.7675 11.3146,-1.6934 11.3146,-1.6934"
         id="path1398"
         sodipodi:nodetypes="csc"
         clip-path="url(#clipPath815)" /><path
         id="path1399"
         style="fill:#347486;stroke:#030300;stroke-width:1.92681;stroke-linecap:round;stroke-linejoin:round;stroke-miterlimit:0;paint-order:fill markers stroke"
         d="m -2126.4607,2449.2851 c -1.9955,0 -3.6018,1.6695 -3.6018,3.7428 v 44.0153 c 1.8867,-1.0606 3.9398,-2.2476 6.7892,-3.1653 0.1309,-0.042 0.2845,-0.083 0.437,-0.1242 l 0.1074,-18.5907 c 0,0 4.5438,-0.9774 6.9154,-3.7283 1.7456,-2.025 1.7133,-6.979 1.4861,-13.8903 -0.044,-1.345 -1.2764,-2.7186 -2.5225,-2.6659 -1.1326,0.048 -2.2914,1.41 -2.2914,2.4542 0,7.2947 0,8.9555 -0.5965,9.8849 -0.9585,1.4835 -3.0932,2.125 -3.0775,0.2919 0.039,-4.5799 0,-14.9573 0,-14.9573 0,-2.0733 -1.6498,-3.2671 -3.6454,-3.2671 z"
         clip-path="url(#clipPath811)" /><path
         id="path1400"
         style="opacity:1;fill:none;stroke:#030300;stroke-width:2.64583;stroke-linecap:round;stroke-linejoin:round;stroke-miterlimit:0;stroke-dasharray:none;stroke-opacity:1;paint-order:fill markers stroke"
         d="m -2085.3293,2485.3745 a 53.396765,53.396765 0 0 1 -16.1485,27.2756 53.396765,53.396765 0 0 1 -75.4182,-3.8123 53.396765,53.396765 0 0 1 -13.1436,-27.574" /><path
         id="path1401"
         style="opacity:1;fill:none;stroke:#030300;stroke-width:2.64583;stroke-linecap:round;stroke-linejoin:round;stroke-miterlimit:0;stroke-dasharray:none;stroke-opacity:1;paint-order:fill markers stroke"
         d="m -2163.7369,2443.7617 a 39.456788,39.456788 0 0 1 55.7295,2.8172 39.456788,39.456788 0 0 1 -2.8174,55.7292 39.456788,39.456788 0 0 1 -55.7292,-2.8171 39.456788,39.456788 0 0 1 2.8171,-55.7293 z" /><path
         d="m -2194.9313,2465.1603 2.3965,0.1022 -0.1307,3.0642 10.2024,0.4353 -0.1059,2.4821 -10.2024,-0.4353 -0.1257,2.9443 -2.3965,-0.1022 z m 7.0607,-4.9083 q -1.6128,-0.5784 -2.7267,-1.888 -1.1082,-1.3256 -1.4334,-3.0076 -0.3355,-1.7039 0.2487,-3.3328 0.5841,-1.629 1.9201,-2.7153 1.3257,-1.1081 3.0238,-1.4275 1.7039,-0.3355 3.3167,0.2428 1.6451,0.59 2.7314,1.926 1.092,1.3199 1.4114,3.018 0.309,1.6762 -0.2751,3.3051 -0.5899,1.6451 -1.8937,2.7429 -1.3199,1.0921 -3.0019,1.4173 -1.6762,0.309 -3.3213,-0.2809 z m 0.8676,-2.4192 q 1.0322,0.3701 2.0766,0.1986 1.0502,-0.1877 1.867,-0.8413 0.8065,-0.6755 1.1767,-1.7077 0.3585,-0.9999 0.1535,-2.0017 -0.2211,-1.0077 -0.9082,-1.7819 -0.7032,-0.78 -1.7515,-1.1559 -1.0644,-0.3817 -2.1089,-0.2102 -1.0444,0.1715 -1.8451,0.8309 -0.8111,0.6375 -1.1754,1.6535 -0.3644,1.0161 -0.149,2.0398 0.205,1.0018 0.9024,1.798 0.6974,0.7961 1.7619,1.1779 z m 6.3051,-24.663 1.9247,1.4316 -1.8303,2.4608 8.1937,6.0943 -1.4826,1.9935 -8.1938,-6.0943 -1.7588,2.3646 -1.9247,-1.4315 z m 16.0086,-0.6958 -3.3018,2.5644 0.7016,2.5792 -1.9351,1.5029 -3.5475,-13.8411 0.1083,-0.084 12.5325,6.8625 -2.2733,1.7656 z m -1.9317,-1.1464 -2.8421,-1.676 0.88,3.1999 z m 7.8479,-13.6345 3.6749,9.5275 5.5311,-2.1334 0.8632,2.238 -7.849,3.0275 -4.5381,-11.7655 z m 32.8269,9.0314 -2.4694,-0.2728 0.5626,-5.092 -5.6029,-0.619 -0.5626,5.092 -2.4694,-0.2729 1.3848,-12.5341 2.4694,0.2728 -0.5588,5.058 5.6029,0.619 0.5588,-5.058 2.4693,0.2729 z m 7.3202,-4.5074 q 0.7642,-1.5336 2.1957,-2.4857 1.4469,-0.9445 3.1554,-1.0695 1.7316,-0.1326 3.2805,0.6391 1.5488,0.7718 2.4703,2.2264 0.9445,1.4468 1.0619,3.1707 0.1326,1.7315 -0.6315,3.2651 -0.7794,1.5642 -2.234,2.4857 -1.4392,0.9292 -3.1631,1.0465 -1.7009,0.1097 -3.2498,-0.6621 -1.5642,-0.7794 -2.501,-2.2033 -0.9291,-1.4393 -1.0541,-3.1478 -0.1096,-1.7009 0.6697,-3.2651 z m 2.3004,1.1461 q -0.4891,0.9815 -0.4416,2.0389 0.063,1.065 0.6157,1.953 0.5759,0.8804 1.5574,1.3694 0.9508,0.4738 1.9697,0.3881 1.0267,-0.1011 1.8764,-0.6922 0.8573,-0.6066 1.354,-1.6034 0.5043,-1.0121 0.4569,-2.0695 -0.047,-1.0573 -0.608,-1.9301 -0.5376,-0.8804 -1.5038,-1.3618 -0.9661,-0.4814 -2.0081,-0.388 -1.0189,0.086 -1.8916,0.6846 -0.8727,0.5989 -1.377,1.611 z m 21.4075,11.1397 q -0.5439,-1.7984 -1.415,-2.6475 -0.5889,-0.5741 -1.1474,-0.6639 -0.5463,-0.078 -1.0007,0.3884 -0.4186,0.4294 -0.2753,1.2152 0.1675,0.7854 0.6657,1.8453 0.4108,0.855 0.5657,1.6042 0.167,0.737 -0.053,1.5516 -0.2075,0.8265 -0.9968,1.6363 -0.6817,0.6993 -1.6358,0.9417 -0.9299,0.2421 -1.9761,-0.084 -1.0342,-0.3382 -2.0034,-1.283 -0.8098,-0.7893 -1.38,-1.7998 -0.5583,-1.0228 -0.767,-2.1833 l 2.1367,-0.621 q 0.1313,0.798 0.5172,1.6049 0.3859,0.8069 0.8644,1.2733 0.5644,0.5501 1.2088,0.7237 0.6563,0.1612 1.1825,-0.3786 0.6817,-0.6994 -0.1287,-2.4943 -0.474,-1.0602 -0.7142,-1.8447 -0.2402,-0.7845 -0.1063,-1.6828 0.1462,-0.8864 0.9236,-1.6839 1.1361,-1.1655 2.5905,-1.1356 1.4666,0.042 2.8024,1.2243 1.006,0.9807 1.4536,1.8716 0.4595,0.8786 0.6909,1.9176 z m 11.3831,11.1561 -2.061,1.2271 -1.569,-2.6351 -8.7742,5.2242 -1.271,-2.1346 8.7742,-5.2243 -1.5077,-2.5321 2.061,-1.2272 z m 5.2926,15.6731 -2.3177,0.618 -1.5758,-5.9103 -2.5992,0.693 1.3948,5.2315 -2.3177,0.618 -1.3948,-5.2315 -2.6324,0.7018 1.6376,6.142 -2.3177,0.618 -2.2776,-8.5426 12.1847,-3.2487 z m 0.8381,10.9557 -10.2082,-0.2666 -0.1548,5.9262 -2.3979,-0.063 0.2196,-8.4098 12.6061,0.3292 z"
         id="path1402"
         style="font-weight:bold;font-size:17.1337px;line-height:14.8403px;font-family:'Josefin Sans';-inkscape-font-specification:'Josefin Sans Bold';letter-spacing:2.06567px;stroke-width:1.69409;stroke-linecap:round;stroke-linejoin:round;stroke-miterlimit:0;paint-order:fill markers stroke"
         aria-label="TOTAL HOSTEL" /></g></g></svg>
